<mxfile host="Electron" modified="2023-12-09T11:27:55.213Z" agent="Mozilla/5.0 (Windows NT 10.0; Win64; x64) AppleWebKit/537.36 (KHTML, like Gecko) draw.io/22.1.2 Chrome/114.0.5735.289 Electron/25.9.4 Safari/537.36" etag="PXav_DqVVJ754l9deC_O" version="22.1.2" type="device">
  <diagram name="Page-1" id="SYpSVl-O07WteA1Kj1Do">
    <mxGraphModel dx="1036" dy="606" grid="1" gridSize="10" guides="1" tooltips="1" connect="1" arrows="1" fold="1" page="1" pageScale="1" pageWidth="850" pageHeight="1100" math="0" shadow="0">
      <root>
        <mxCell id="0" />
        <mxCell id="1" parent="0" />
        <mxCell id="w-ruEgxd44OofjUXRPdC-5" value="" style="rounded=0;whiteSpace=wrap;html=1;" vertex="1" parent="1">
          <mxGeometry y="40" width="850" height="550" as="geometry" />
        </mxCell>
        <mxCell id="w-ruEgxd44OofjUXRPdC-6" value="" style="rounded=0;whiteSpace=wrap;html=1;" vertex="1" parent="1">
          <mxGeometry x="220" y="160" width="390" height="90" as="geometry" />
        </mxCell>
        <mxCell id="w-ruEgxd44OofjUXRPdC-7" value="&lt;p style=&quot;line-height: 120%;&quot;&gt;&lt;br&gt;&lt;/p&gt;" style="rounded=0;whiteSpace=wrap;html=1;" vertex="1" parent="1">
          <mxGeometry x="580" y="60" width="260" height="70" as="geometry" />
        </mxCell>
        <mxCell id="w-ruEgxd44OofjUXRPdC-8" value="main div" style="text;html=1;align=center;verticalAlign=middle;resizable=0;points=[];autosize=1;strokeColor=none;fillColor=none;" vertex="1" parent="1">
          <mxGeometry x="45" y="18" width="70" height="30" as="geometry" />
        </mxCell>
        <mxCell id="w-ruEgxd44OofjUXRPdC-9" value="p" style="whiteSpace=wrap;html=1;aspect=fixed;" vertex="1" parent="1">
          <mxGeometry x="610" y="70" width="40" height="40" as="geometry" />
        </mxCell>
        <mxCell id="w-ruEgxd44OofjUXRPdC-11" value="p" style="whiteSpace=wrap;html=1;aspect=fixed;" vertex="1" parent="1">
          <mxGeometry x="670" y="70" width="40" height="40" as="geometry" />
        </mxCell>
        <mxCell id="w-ruEgxd44OofjUXRPdC-13" value="div" style="text;html=1;strokeColor=none;fillColor=none;align=center;verticalAlign=middle;whiteSpace=wrap;rounded=0;" vertex="1" parent="1">
          <mxGeometry x="560" y="30" width="60" height="40" as="geometry" />
        </mxCell>
        <mxCell id="w-ruEgxd44OofjUXRPdC-15" value="img" style="whiteSpace=wrap;html=1;aspect=fixed;" vertex="1" parent="1">
          <mxGeometry x="730" y="70" width="40" height="40" as="geometry" />
        </mxCell>
        <mxCell id="w-ruEgxd44OofjUXRPdC-16" value="img" style="whiteSpace=wrap;html=1;aspect=fixed;" vertex="1" parent="1">
          <mxGeometry x="790" y="70" width="40" height="40" as="geometry" />
        </mxCell>
        <mxCell id="w-ruEgxd44OofjUXRPdC-17" value="div" style="text;html=1;strokeColor=none;fillColor=none;align=center;verticalAlign=middle;whiteSpace=wrap;rounded=0;" vertex="1" parent="1">
          <mxGeometry x="210" y="140" width="60" height="30" as="geometry" />
        </mxCell>
        <mxCell id="w-ruEgxd44OofjUXRPdC-18" value="img(google Image)" style="rounded=0;whiteSpace=wrap;html=1;" vertex="1" parent="1">
          <mxGeometry x="250" y="180" width="330" height="50" as="geometry" />
        </mxCell>
        <mxCell id="w-ruEgxd44OofjUXRPdC-19" value="" style="rounded=0;whiteSpace=wrap;html=1;" vertex="1" parent="1">
          <mxGeometry x="170" y="270" width="490" height="60" as="geometry" />
        </mxCell>
        <mxCell id="w-ruEgxd44OofjUXRPdC-20" value="div" style="text;html=1;strokeColor=none;fillColor=none;align=center;verticalAlign=middle;whiteSpace=wrap;rounded=0;" vertex="1" parent="1">
          <mxGeometry x="210" y="250" width="60" height="30" as="geometry" />
        </mxCell>
        <mxCell id="w-ruEgxd44OofjUXRPdC-21" value="icon" style="whiteSpace=wrap;html=1;aspect=fixed;" vertex="1" parent="1">
          <mxGeometry x="190" y="280" width="40" height="40" as="geometry" />
        </mxCell>
        <mxCell id="w-ruEgxd44OofjUXRPdC-22" value="mic image" style="whiteSpace=wrap;html=1;aspect=fixed;" vertex="1" parent="1">
          <mxGeometry x="530" y="280" width="40" height="40" as="geometry" />
        </mxCell>
        <mxCell id="w-ruEgxd44OofjUXRPdC-23" value="lens image" style="whiteSpace=wrap;html=1;aspect=fixed;" vertex="1" parent="1">
          <mxGeometry x="600" y="280" width="40" height="40" as="geometry" />
        </mxCell>
        <mxCell id="w-ruEgxd44OofjUXRPdC-24" value="" style="rounded=0;whiteSpace=wrap;html=1;" vertex="1" parent="1">
          <mxGeometry x="220" y="350" width="430" height="200" as="geometry" />
        </mxCell>
        <mxCell id="w-ruEgxd44OofjUXRPdC-26" value="" style="whiteSpace=wrap;html=1;aspect=fixed;" vertex="1" parent="1">
          <mxGeometry x="240" y="360" width="80" height="80" as="geometry" />
        </mxCell>
        <mxCell id="w-ruEgxd44OofjUXRPdC-27" value="" style="whiteSpace=wrap;html=1;aspect=fixed;" vertex="1" parent="1">
          <mxGeometry x="240" y="460" width="80" height="80" as="geometry" />
        </mxCell>
        <mxCell id="w-ruEgxd44OofjUXRPdC-28" value="" style="whiteSpace=wrap;html=1;aspect=fixed;" vertex="1" parent="1">
          <mxGeometry x="345" y="360" width="80" height="80" as="geometry" />
        </mxCell>
        <mxCell id="w-ruEgxd44OofjUXRPdC-29" value="" style="whiteSpace=wrap;html=1;aspect=fixed;" vertex="1" parent="1">
          <mxGeometry x="450" y="360" width="80" height="80" as="geometry" />
        </mxCell>
        <mxCell id="w-ruEgxd44OofjUXRPdC-30" value="" style="whiteSpace=wrap;html=1;aspect=fixed;" vertex="1" parent="1">
          <mxGeometry x="550" y="360" width="80" height="80" as="geometry" />
        </mxCell>
        <mxCell id="w-ruEgxd44OofjUXRPdC-31" value="" style="whiteSpace=wrap;html=1;aspect=fixed;" vertex="1" parent="1">
          <mxGeometry x="345" y="460" width="80" height="80" as="geometry" />
        </mxCell>
        <mxCell id="w-ruEgxd44OofjUXRPdC-32" value="" style="whiteSpace=wrap;html=1;aspect=fixed;" vertex="1" parent="1">
          <mxGeometry x="450" y="460" width="80" height="80" as="geometry" />
        </mxCell>
        <mxCell id="w-ruEgxd44OofjUXRPdC-33" value="" style="whiteSpace=wrap;html=1;aspect=fixed;" vertex="1" parent="1">
          <mxGeometry x="550" y="460" width="80" height="80" as="geometry" />
        </mxCell>
        <mxCell id="w-ruEgxd44OofjUXRPdC-36" value="div" style="text;html=1;strokeColor=none;fillColor=none;align=center;verticalAlign=middle;whiteSpace=wrap;rounded=0;" vertex="1" parent="1">
          <mxGeometry x="210" y="330" width="60" height="30" as="geometry" />
        </mxCell>
        <mxCell id="w-ruEgxd44OofjUXRPdC-38" value="img&lt;br&gt;p" style="whiteSpace=wrap;html=1;aspect=fixed;" vertex="1" parent="1">
          <mxGeometry x="250" y="370" width="60" height="60" as="geometry" />
        </mxCell>
        <mxCell id="w-ruEgxd44OofjUXRPdC-39" value="div" style="text;html=1;strokeColor=none;fillColor=none;align=center;verticalAlign=middle;whiteSpace=wrap;rounded=0;" vertex="1" parent="1">
          <mxGeometry x="230" y="350" width="60" height="30" as="geometry" />
        </mxCell>
        <mxCell id="w-ruEgxd44OofjUXRPdC-40" value="img&amp;nbsp;&lt;br&gt;p" style="whiteSpace=wrap;html=1;aspect=fixed;" vertex="1" parent="1">
          <mxGeometry x="358.75" y="373.75" width="56.25" height="56.25" as="geometry" />
        </mxCell>
        <mxCell id="w-ruEgxd44OofjUXRPdC-41" value="div" style="text;html=1;strokeColor=none;fillColor=none;align=center;verticalAlign=middle;whiteSpace=wrap;rounded=0;" vertex="1" parent="1">
          <mxGeometry x="330" y="350" width="60" height="30" as="geometry" />
        </mxCell>
        <mxCell id="w-ruEgxd44OofjUXRPdC-42" value="img&lt;br&gt;p" style="whiteSpace=wrap;html=1;aspect=fixed;" vertex="1" parent="1">
          <mxGeometry x="460" y="370" width="60" height="60" as="geometry" />
        </mxCell>
        <mxCell id="w-ruEgxd44OofjUXRPdC-43" value="img&lt;br&gt;p" style="whiteSpace=wrap;html=1;aspect=fixed;" vertex="1" parent="1">
          <mxGeometry x="560" y="370" width="60" height="60" as="geometry" />
        </mxCell>
        <mxCell id="w-ruEgxd44OofjUXRPdC-44" value="img&lt;br&gt;p" style="whiteSpace=wrap;html=1;aspect=fixed;" vertex="1" parent="1">
          <mxGeometry x="250" y="470" width="60" height="60" as="geometry" />
        </mxCell>
        <mxCell id="w-ruEgxd44OofjUXRPdC-45" value="img&lt;br&gt;p" style="whiteSpace=wrap;html=1;aspect=fixed;" vertex="1" parent="1">
          <mxGeometry x="356.88" y="470" width="60" height="60" as="geometry" />
        </mxCell>
        <mxCell id="w-ruEgxd44OofjUXRPdC-46" value="img&lt;br&gt;p" style="whiteSpace=wrap;html=1;aspect=fixed;" vertex="1" parent="1">
          <mxGeometry x="460" y="470" width="60" height="60" as="geometry" />
        </mxCell>
        <mxCell id="w-ruEgxd44OofjUXRPdC-47" value="img&lt;br&gt;p" style="whiteSpace=wrap;html=1;aspect=fixed;" vertex="1" parent="1">
          <mxGeometry x="560" y="470" width="60" height="60" as="geometry" />
        </mxCell>
        <mxCell id="w-ruEgxd44OofjUXRPdC-48" value="div" style="text;html=1;strokeColor=none;fillColor=none;align=center;verticalAlign=middle;whiteSpace=wrap;rounded=0;" vertex="1" parent="1">
          <mxGeometry x="450" y="350" width="60" height="30" as="geometry" />
        </mxCell>
        <mxCell id="w-ruEgxd44OofjUXRPdC-49" value="div" style="text;html=1;strokeColor=none;fillColor=none;align=center;verticalAlign=middle;whiteSpace=wrap;rounded=0;" vertex="1" parent="1">
          <mxGeometry x="540" y="350" width="60" height="30" as="geometry" />
        </mxCell>
        <mxCell id="w-ruEgxd44OofjUXRPdC-50" value="div" style="text;html=1;strokeColor=none;fillColor=none;align=center;verticalAlign=middle;whiteSpace=wrap;rounded=0;" vertex="1" parent="1">
          <mxGeometry x="230" y="450" width="60" height="30" as="geometry" />
        </mxCell>
        <mxCell id="w-ruEgxd44OofjUXRPdC-51" value="div" style="text;html=1;strokeColor=none;fillColor=none;align=center;verticalAlign=middle;whiteSpace=wrap;rounded=0;" vertex="1" parent="1">
          <mxGeometry x="330" y="450" width="60" height="30" as="geometry" />
        </mxCell>
        <mxCell id="w-ruEgxd44OofjUXRPdC-52" value="div" style="text;html=1;strokeColor=none;fillColor=none;align=center;verticalAlign=middle;whiteSpace=wrap;rounded=0;" vertex="1" parent="1">
          <mxGeometry x="440" y="450" width="60" height="30" as="geometry" />
        </mxCell>
        <mxCell id="w-ruEgxd44OofjUXRPdC-53" value="div" style="text;html=1;strokeColor=none;fillColor=none;align=center;verticalAlign=middle;whiteSpace=wrap;rounded=0;" vertex="1" parent="1">
          <mxGeometry x="540" y="450" width="60" height="30" as="geometry" />
        </mxCell>
      </root>
    </mxGraphModel>
  </diagram>
</mxfile>
